<svg xmlns="http://www.w3.org/2000/svg" viewBox="0 0 128 128" role="img" aria-hidden="true">
  <defs>
    <clipPath id="badge">
      <circle cx="64" cy="64" r="60"/>
    </clipPath>
  </defs>
  <circle cx="64" cy="64" r="62" fill="#1d1d1d"/>
  <g clip-path="url(#badge)">
    <rect width="128" height="128" fill="#141414"/>
    <rect x="8" width="16" height="128" fill="#f96a2f"/>
    <rect x="24" width="16" height="128" fill="#f4c740"/>
    <rect x="40" width="16" height="128" fill="#7ebdd1"/>
    <rect x="56" width="16" height="128" fill="#efe0b5"/>
    <rect x="72" width="16" height="128" fill="#e5d09d"/>
    <rect x="88" width="16" height="128" fill="#67a7a7"/>
    <rect x="104" width="16" height="128" fill="#2e8088"/>
    <g fill="none" stroke="#111" stroke-linecap="round" stroke-linejoin="round" stroke-width="3">
      <path d="M36 44c8-8 17-12 28-12"/>
      <path d="M66 32c11 0 20 4 28 12"/>
      <path d="M37 55c7-3 14-3 20 1"/>
      <path d="M70 56c6-4 13-4 20-1"/>
      <path d="M65 42c-3 12-3 24 0 36"/>
      <path d="M45 91c11 7 27 7 38 0"/>
      <path d="M29 108c12-15 23-24 35-28"/>
      <path d="M99 108C87 93 76 84 64 80"/>
    </g>
    <ellipse cx="48" cy="58" rx="4.8" ry="3.1" fill="#0f0f0f"/>
    <ellipse cx="82" cy="58" rx="4.8" ry="3.1" fill="#0f0f0f"/>
    <path d="M53 82c4 4 14 4 22 0 0 7-4 12-11 12S53 89 53 82Z" fill="#db3f35"/>
  </g>
</svg>
