<svg xmlns="http://www.w3.org/2000/svg" viewBox="0 0 128 128" role="img" aria-hidden="true">
  <defs>
    <linearGradient id="rim" x1="0" y1="0" x2="1" y2="1">
      <stop offset="0" stop-color="#505050"/>
      <stop offset="1" stop-color="#141414"/>
    </linearGradient>
  </defs>
  <circle cx="64" cy="64" r="62" fill="url(#rim)"/>
  <circle cx="64" cy="64" r="57" fill="#050505"/>
  <path d="M31 21c14-10 50-9 69 2-10-14-54-19-69-2Z" fill="#111" opacity=".78"/>
  <path d="M78 10c17 4 28 9 34 21-12-7-23-10-38-11 1-3 2-7 4-10Z" fill="#fff" opacity=".9"/>
  <path d="M20 72 18 48l15-9 80 6 2 28-15 10z" fill="#67ff3e"/>
  <path d="M24 45 110 50l-2 19-81 5-2-29Z" fill="#67ff3e"/>
  <text x="64" y="74" fill="#0a0a0a" font-family="Impact, Arial Black, sans-serif" font-size="28" font-weight="900" letter-spacing="2.2" text-anchor="middle">BLONDIE</text>
</svg>
