<svg xmlns="http://www.w3.org/2000/svg" viewBox="0 0 128 128" role="img" aria-hidden="true">
  <defs>
    <radialGradient id="wash" cx=".5" cy=".38" r=".78">
      <stop offset="0" stop-color="#ffffff"/>
      <stop offset=".7" stop-color="#d9d9d9"/>
      <stop offset="1" stop-color="#b9b9b9"/>
    </radialGradient>
  </defs>
  <circle cx="64" cy="64" r="62" fill="#d7d7d7"/>
  <circle cx="64" cy="64" r="58" fill="url(#wash)"/>
  <g opacity=".42" fill="#8f8f8f">
    <circle cx="28" cy="32" r="1.6"/>
    <circle cx="44" cy="24" r="1.4"/>
    <circle cx="55" cy="34" r="1.3"/>
    <circle cx="79" cy="28" r="1.5"/>
    <circle cx="96" cy="34" r="1.2"/>
    <circle cx="25" cy="58" r="1.4"/>
    <circle cx="41" cy="52" r="1.2"/>
    <circle cx="88" cy="54" r="1.2"/>
    <circle cx="103" cy="60" r="1.5"/>
    <circle cx="33" cy="88" r="1.4"/>
    <circle cx="57" cy="97" r="1.2"/>
    <circle cx="85" cy="94" r="1.3"/>
  </g>
  <g fill="#ff5cb2" opacity=".62">
    <rect x="22" y="41" width="9" height="1.6" rx=".8"/>
    <rect x="85" y="39" width="12" height="1.6" rx=".8"/>
    <rect x="34" y="72" width="7" height="1.6" rx=".8"/>
    <rect x="91" y="80" width="10" height="1.6" rx=".8"/>
    <rect x="54" y="21" width="8" height="1.6" rx=".8"/>
  </g>
  <g fill="none" stroke="#2e2e2e" stroke-linecap="round" stroke-linejoin="round">
    <path d="M34 49c8-6 18-8 29-6"/>
    <path d="M64 43c10-2 21 0 30 6"/>
    <path d="M40 58c4-4 10-5 15-2"/>
    <path d="M74 56c6-3 12-2 16 3"/>
    <path d="M61 58c1 8 0 15-3 22"/>
    <path d="M58 81c6 3 12 3 18 0"/>
    <path d="M46 95c11 5 25 5 36 0"/>
  </g>
  <g fill="#1e1e1e">
    <ellipse cx="48" cy="59" rx="4.2" ry="2.6"/>
    <ellipse cx="81" cy="58" rx="4.2" ry="2.6"/>
  </g>
</svg>
